<?xml version="1.0" standalone="no"?>
<!DOCTYPE svg PUBLIC "-//W3C//DTD SVG 20010904//EN"
 "http://www.w3.org/TR/2001/REC-SVG-20010904/DTD/svg10.dtd">
<svg version="1.0" xmlns="http://www.w3.org/2000/svg"
 width="462.000000pt" height="107.000000pt" viewBox="0 0 462.000000 107.000000"
 preserveAspectRatio="xMidYMid meet">

<g transform="translate(0.000000,107.000000) scale(0.100000,-0.100000)"
fill="#000000" stroke="none">
<path d="M529 1029 c-86 -20 -224 -102 -280 -165 -59 -66 -119 -233 -119 -328
0 -99 43 -225 107 -313 26 -36 124 -113 180 -141 95 -49 220 -65 323 -41 120
27 262 132 329 243 56 94 74 233 47 372 -46 246 -340 432 -587 373z m201 -23
c59 -13 108 -34 191 -85 31 -19 107 -105 122 -138 5 -13 14 -23 18 -23 4 0 17
-28 28 -62 29 -84 29 -241 2 -321 -32 -93 -115 -193 -206 -250 -92 -57 -146
-72 -255 -72 -111 0 -185 24 -279 90 -57 40 -129 127 -153 187 -58 140 -59
251 -6 389 25 65 100 167 136 185 12 6 30 18 40 27 26 23 124 66 174 76 65 13
116 12 188 -3z"/>
<path d="M485 945 c-33 -15 -69 -29 -80 -32 -27 -8 -79 -57 -125 -118 -71 -96
-74 -106 -75 -255 0 -153 6 -175 71 -260 66 -86 103 -115 189 -148 101 -39
156 -46 237 -32 102 19 204 75 262 146 80 98 125 227 112 323 -8 57 -44 167
-60 184 -7 6 -26 33 -44 59 -39 57 -76 85 -162 123 -55 24 -81 30 -165 32 -90
3 -106 1 -160 -22z m281 -16 c38 -12 83 -30 99 -42 45 -30 95 -79 95 -92 0 -7
9 -20 19 -29 59 -53 89 -238 58 -347 -20 -68 -83 -166 -137 -212 -96 -82 -266
-110 -402 -66 -97 31 -123 49 -191 133 -75 92 -102 172 -95 285 3 59 12 93 35
142 37 80 142 193 193 208 19 5 53 17 75 25 59 22 170 20 251 -5z"/>
<path d="M555 809 c-4 -6 -5 -12 -2 -15 2 -3 7 2 10 11 7 17 1 20 -8 4z"/>
<path d="M628 792 c5 -35 -19 -62 -50 -56 -21 4 -21 4 -3 -4 11 -5 26 -7 34
-4 9 3 12 1 7 -6 -3 -6 -2 -13 4 -17 5 -3 10 -27 10 -53 0 -45 0 -46 -16 -24
-9 13 -13 31 -10 40 6 15 5 16 -7 1 -9 -12 -18 -14 -36 -8 -19 8 -22 15 -19
39 3 17 -1 31 -7 34 -9 3 -10 -7 -5 -35 7 -39 7 -39 -25 -39 -37 0 -64 25 -66
61 -1 17 -3 19 -6 7 -2 -10 -12 -18 -21 -19 -14 0 -14 -2 -2 -6 8 -3 29 -18
47 -33 28 -25 30 -29 15 -43 -14 -15 -13 -16 6 -14 12 0 19 3 17 5 -2 3 2 11
10 18 22 22 64 17 91 -13 24 -26 26 -45 2 -25 -7 5 -30 12 -51 15 -30 4 -36 2
-27 -8 6 -7 20 -11 31 -8 25 7 69 -32 69 -60 0 -19 -1 -19 -18 -4 -31 29 -94
46 -122 33 -14 -6 -27 -13 -30 -16 -3 -3 -16 -11 -30 -18 -22 -11 -22 -11 -2
-6 18 4 22 1 22 -20 0 -14 4 -27 8 -30 4 -2 6 11 4 30 -4 29 -1 35 24 44 40
16 79 3 114 -36 26 -30 30 -42 30 -94 0 -35 -4 -60 -10 -60 -21 0 -60 -49 -60
-75 0 -34 50 -85 83 -85 13 0 36 11 51 25 36 33 35 77 -4 122 -25 28 -30 43
-30 83 0 31 6 54 16 64 10 10 11 16 3 16 -9 0 -8 4 1 15 17 20 67 19 78 -1 6
-10 12 -13 16 -6 3 6 -7 16 -24 24 -40 17 -38 28 5 28 44 0 112 -33 118 -57 4
-14 5 -13 6 5 0 12 7 22 15 22 20 0 46 28 46 48 0 12 -4 9 -13 -8 -10 -20 -20
-25 -52 -25 -22 0 -39 5 -38 10 1 6 -12 11 -28 12 -15 1 -40 10 -54 19 -23 15
-25 15 -19 0 4 -12 0 -16 -15 -16 -12 0 -31 -10 -43 -22 -17 -17 -20 -18 -15
-4 4 10 7 26 7 37 0 23 54 52 80 44 11 -4 20 -10 20 -15 0 -14 63 8 73 25 10
18 41 20 34 3 -2 -7 -9 -12 -15 -11 -7 2 -9 -4 -5 -14 4 -11 8 -13 11 -5 2 7
7 10 12 7 4 -3 13 1 19 9 9 11 4 17 -21 29 -31 15 -33 15 -40 -2 -4 -11 -11
-22 -17 -25 -13 -8 -62 4 -56 14 5 8 -66 -3 -83 -14 -7 -4 -12 -3 -12 3 0 5
20 26 44 45 41 35 79 46 90 27 8 -12 -19 -33 -30 -23 -5 4 0 -3 10 -15 11 -13
24 -23 30 -23 6 0 5 4 -3 9 -11 7 -10 11 7 22 20 13 20 13 -3 31 -13 10 -28
18 -33 18 -6 0 -8 10 -6 23 4 21 4 21 -5 2 -10 -24 -30 -42 -51 -47 -8 -2 -25
-13 -37 -26 l-22 -22 -9 32 c-9 36 -5 71 8 63 9 -6 8 8 -4 43 -11 31 -23 27
-18 -6z m46 -481 c17 -19 17 -21 0 -50 -20 -35 -39 -38 -72 -15 -24 17 -29 53
-10 72 18 18 63 14 82 -7z"/>
<path d="M695 789 c-4 -6 -5 -12 -2 -15 2 -3 7 2 10 11 7 17 1 20 -8 4z"/>
<path d="M700 749 c0 -6 -7 -8 -17 -4 -14 5 -15 3 -6 -6 9 -9 17 -8 34 5 19
13 20 16 6 16 -9 0 -17 -5 -17 -11z"/>
<path d="M495 710 c-3 -6 1 -7 9 -4 18 7 21 14 7 14 -6 0 -13 -4 -16 -10z"/>
<path d="M380 681 c0 -10 19 -25 25 -20 1 2 -3 10 -11 17 -8 7 -14 8 -14 3z"/>
<path d="M381 626 c-17 -21 24 -49 51 -35 26 14 23 16 -14 11 -28 -4 -30 -2
-25 17 6 25 4 26 -12 7z"/>
<path d="M347 603 c-9 -9 -9 -41 1 -46 4 -3 7 8 7 24 0 16 0 29 -1 29 0 0 -4
-3 -7 -7z"/>
<path d="M766 552 c-3 -5 1 -9 9 -9 8 0 12 4 9 9 -3 4 -7 8 -9 8 -2 0 -6 -4
-9 -8z"/>
<path d="M360 530 c0 -5 7 -7 15 -4 8 4 15 8 15 10 0 2 -7 4 -15 4 -8 0 -15
-4 -15 -10z"/>
<path d="M510 526 c7 -7 13 -7 20 0 6 6 3 10 -10 10 -13 0 -16 -4 -10 -10z"/>
<path d="M543 515 c-3 -9 -3 -18 -1 -21 3 -3 8 4 11 16 6 23 -1 27 -10 5z"/>
<path d="M810 501 c0 -6 4 -13 10 -16 6 -3 7 1 4 9 -7 18 -14 21 -14 7z"/>
<path d="M704 480 c2 -18 48 -20 52 -2 1 7 0 8 -3 2 -7 -14 -41 -13 -46 3 -2
7 -3 6 -3 -3z"/>
<path d="M1455 989 c-78 -19 -124 -92 -103 -166 16 -57 56 -88 150 -113 97
-26 114 -34 128 -60 24 -44 -26 -90 -98 -90 -47 0 -80 23 -98 66 -14 33 -16
34 -57 28 -23 -4 -44 -8 -46 -10 -10 -9 13 -77 36 -104 42 -50 78 -64 168 -64
61 -1 89 4 120 20 54 27 88 92 82 153 -9 80 -50 113 -185 149 -68 18 -112 43
-112 64 0 4 9 17 20 28 30 30 103 28 135 -5 14 -13 25 -29 25 -35 0 -5 22 -10
51 -10 l52 0 -6 37 c-16 93 -130 142 -262 112z"/>
<path d="M1860 735 l0 -255 180 0 180 0 0 45 0 45 -125 0 -125 0 0 210 0 210
-55 0 -55 0 0 -255z"/>
<path d="M2476 982 c-4 -8 -112 -282 -172 -439 l-24 -63 54 0 54 0 22 60 23
61 100 -3 101 -3 22 -55 22 -55 56 -3 57 -3 -14 33 c-7 18 -53 133 -102 256
l-89 222 -52 0 c-29 0 -55 -4 -58 -8z m90 -204 l31 -83 -60 -3 c-32 -2 -61 -1
-64 2 -6 5 50 166 57 166 3 0 19 -37 36 -82z"/>
<path d="M2880 735 l0 -257 163 4 c192 4 217 13 249 85 27 62 18 107 -33 155
-29 27 -35 39 -26 45 47 29 60 106 27 160 -31 52 -51 57 -222 61 l-158 4 0
-257z m281 155 c24 -13 25 -57 2 -82 -13 -15 -31 -18 -100 -18 l-83 0 0 55 0
55 81 0 c44 0 89 -5 100 -10z m19 -210 c11 -11 20 -33 20 -49 0 -47 -30 -61
-132 -61 l-88 0 0 65 0 65 90 0 c77 0 93 -3 110 -20z"/>
<path d="M3430 735 l0 -255 50 0 50 0 0 255 0 255 -50 0 -50 0 0 -255z"/>
<path d="M3670 736 l0 -256 45 0 45 0 0 167 0 167 103 -167 102 -167 48 0 47
0 0 255 0 255 -45 0 -45 0 0 -172 0 -172 -103 169 -103 170 -47 3 -47 3 0
-255z"/>
<path d="M4180 945 l0 -45 75 0 75 0 0 -210 0 -210 50 0 50 0 0 210 0 210 75
0 75 0 0 45 0 45 -200 0 -200 0 0 -45z"/>
</g>
</svg>
